<!DOCTYPE svg PUBLIC "-//W3C//DTD SVG 20010904//EN" "http://www.w3.org/TR/2001/REC-SVG-20010904/DTD/svg10.dtd">
<svg version="1.0" xmlns="http://www.w3.org/2000/svg" width="1600px" height="900px" viewBox="0 0 16000 9000" preserveAspectRatio="xMidYMid meet">
<g id="layer101" fill="#000000" stroke="none">
 <path d="M0 4500 l0 -4500 8000 0 8000 0 0 4500 0 4500 -8000 0 -8000 0 0 -4500z m4200 3188 c0 -3 -137 -163 -305 -355 -168 -191 -303 -352 -301 -358 2 -5 56 -208 121 -450 117 -439 117 -440 111 -525 -10 -141 -46 -626 -56 -770 -6 -74 -15 -193 -20 -265 -27 -365 -31 -420 -33 -421 -1 0 -379 -127 -840 -282 l-837 -280 -212 191 c-130 117 -274 260 -370 367 -148 164 -157 176 -140 191 36 34 460 339 471 339 6 0 62 -49 124 -108 202 -194 208 -200 242 -192 17 4 111 28 210 54 99 26 221 58 270 71 268 70 330 87 331 88 0 1 20 130 43 287 24 157 56 370 72 473 16 104 29 207 29 231 0 23 -16 147 -35 276 -20 129 -49 325 -66 435 -16 110 -39 261 -51 335 -11 74 -21 154 -22 177 l-1 43 444 355 443 355 189 -128 c104 -70 189 -130 189 -134z m570 -338 c129 -56 296 -128 370 -160 74 -32 241 -104 370 -160 129 -56 296 -128 370 -160 253 -109 394 -170 397 -174 3 -3 -104 -216 -228 -451 -56 -106 -12 -84 -416 -206 -145 -43 -381 -115 -525 -158 -546 -165 -694 -209 -744 -224 l-51 -15 -52 236 c-29 131 -70 319 -92 420 -21 100 -58 266 -80 369 -29 132 -38 192 -31 203 5 8 60 94 122 190 62 96 148 232 193 301 l80 127 41 -18 c23 -10 147 -64 276 -120z m2827 -132 c23 -73 78 -250 123 -393 45 -143 104 -331 131 -417 93 -298 151 -483 179 -573 16 -49 51 -163 79 -252 28 -90 74 -235 101 -323 28 -88 72 -231 99 -317 27 -87 60 -193 74 -236 l25 -78 -40 -107 c-22 -59 -65 -174 -96 -257 -30 -82 -57 -152 -58 -154 -2 -2 -115 47 -251 109 -136 62 -282 128 -323 147 -41 18 -142 64 -225 102 -82 38 -151 68 -152 67 -2 -1 61 -189 139 -417 77 -228 141 -425 142 -438 1 -24 -7 -27 -264 -93 -146 -38 -288 -73 -317 -79 l-51 -11 -209 107 c-114 59 -244 127 -288 150 -44 23 -156 82 -250 130 -93 48 -206 107 -250 130 -44 23 -156 82 -250 130 -167 86 -276 142 -505 262 -78 41 -176 80 -305 122 -399 130 -621 203 -646 212 -22 9 -29 21 -43 77 -8 37 -29 126 -46 197 -59 248 -69 290 -65 294 5 4 115 -40 1259 -501 462 -186 841 -336 844 -334 2 3 -101 267 -229 588 -128 321 -240 604 -250 629 l-17 45 428 287 c236 158 433 287 438 287 10 0 446 -212 820 -398 111 -56 202 -96 202 -89 0 7 -7 35 -16 62 -8 28 -91 302 -184 610 -93 308 -187 621 -209 695 -23 74 -41 140 -41 147 0 10 49 13 228 13 l229 0 40 -132z m1095 -18 l3 -151 173 113 173 113 92 -7 c51 -3 148 -11 217 -17 119 -10 218 -18 485 -41 66 -5 176 -14 245 -20 69 -5 149 -13 178 -16 l52 -6 0 -157 0 -157 -97 -36 c-177 -66 -607 -228 -683 -258 -312 -119 -264 -109 -645 -140 -71 -6 -182 -15 -245 -20 -63 -5 -173 -14 -245 -20 -71 -6 -149 -13 -172 -15 -41 -4 -42 -4 -48 28 -6 39 -94 531 -135 758 -17 92 -30 174 -30 183 0 14 34 16 340 16 l339 0 3 -150z m410 -1214 l3 -145 170 110 170 110 90 -6 c50 -3 135 -10 190 -15 55 -5 159 -14 230 -20 72 -6 211 -17 309 -26 361 -30 411 -34 429 -34 16 0 17 -13 15 -162 l-3 -161 -355 -134 c-743 -280 -716 -271 -815 -277 -49 -3 -142 -10 -205 -16 -63 -5 -169 -14 -235 -20 -66 -5 -183 -15 -260 -22 -77 -6 -165 -12 -195 -12 -64 -1 -50 -40 -110 304 -69 388 -111 624 -117 648 l-5 22 346 0 345 0 3 -144z m-5164 -2014 c141 -103 441 -323 666 -487 226 -165 484 -354 575 -421 91 -66 166 -126 166 -132 0 -7 -238 -199 -530 -428 -291 -228 -534 -420 -540 -426 -13 -14 66 -8 530 36 82 8 152 13 154 10 2 -2 8 -70 12 -151 4 -82 13 -236 18 -343 6 -107 11 -219 11 -247 l0 -53 -42 5 c-24 3 -176 10 -338 15 -288 10 -525 20 -1020 40 -135 5 -338 13 -453 17 -129 4 -211 10 -216 17 -5 6 -52 84 -104 174 l-94 163 -244 201 c-273 224 -245 187 -289 378 -11 47 -29 123 -40 170 -11 47 -28 121 -39 165 -10 44 -53 226 -95 404 -42 179 -75 331 -74 340 3 16 678 245 689 233 3 -4 25 -72 48 -152 24 -80 52 -178 64 -219 l22 -74 260 279 c143 153 262 281 265 284 3 3 86 92 184 198 99 105 183 192 188 192 5 0 124 -85 266 -188z m2456 -574 c14 -57 42 -164 61 -238 20 -74 51 -194 70 -267 l35 -132 0 -819 0 -820 -42 -7 c-45 -7 -155 -26 -433 -75 -93 -16 -183 -32 -198 -35 -33 -6 -39 -17 71 142 46 67 84 125 83 129 0 5 -40 18 -88 31 -48 12 -122 32 -164 44 l-75 21 -13 61 c-7 34 -32 154 -57 267 -25 113 -58 267 -75 343 l-29 139 60 144 c33 79 87 209 120 289 33 80 87 209 119 288 32 78 92 221 131 317 40 96 76 180 81 185 7 8 275 89 310 94 4 1 18 -45 33 -101z m1216 96 c0 -4 16 -68 36 -143 19 -75 48 -187 65 -248 16 -62 43 -164 59 -227 l30 -114 0 -820 0 -820 -42 -7 c-45 -7 -155 -26 -433 -75 -93 -16 -183 -32 -198 -35 -33 -6 -39 -18 75 148 54 79 83 129 75 132 -6 2 -82 22 -167 45 -85 22 -155 42 -155 43 -1 1 -10 40 -19 87 -10 47 -36 166 -58 265 -21 99 -53 242 -69 318 l-29 139 60 144 c33 79 87 209 120 289 33 80 87 209 119 288 32 78 92 221 131 317 40 96 76 180 81 185 5 6 76 29 157 52 164 46 162 45 162 37z"/>
 </g>
<g id="layer102" fill="#57c04c" stroke="none">
 <path d="M4373 7361 c-45 -69 -131 -205 -193 -301 -62 -96 -117 -182 -122 -190 -7 -11 2 -71 31 -203 22 -103 59 -269 80 -369 22 -101 63 -289 92 -420 l52 -236 51 15 c50 15 198 59 744 224 144 43 380 115 525 158 404 122 360 100 416 206 124 235 231 448 228 451 -3 4 -144 65 -397 174 -74 32 -241 104 -370 160 -129 56 -296 128 -370 160 -110 47 -439 190 -646 280 l-41 18 -80 -127z"/>
 <path d="M7100 7337 c0 -7 18 -73 41 -147 22 -74 116 -387 209 -695 93 -308 176 -582 184 -610 9 -27 16 -55 16 -62 0 -7 -91 33 -202 89 -374 186 -810 398 -820 398 -5 0 -202 -129 -438 -287 l-428 -287 17 -45 c10 -25 122 -308 250 -629 128 -321 231 -585 229 -588 -3 -2 -382 148 -844 334 -1144 461 -1254 505 -1259 501 -4 -4 6 -46 65 -294 17 -71 38 -160 46 -197 14 -56 21 -68 43 -77 25 -9 247 -82 646 -212 129 -42 227 -81 305 -122 229 -120 338 -176 505 -262 94 -48 206 -107 250 -130 44 -23 157 -82 250 -130 94 -48 206 -107 250 -130 44 -23 174 -91 288 -150 l209 -107 51 11 c29 6 171 41 317 79 257 66 265 69 264 93 -1 13 -65 210 -142 438 -78 228 -141 416 -139 417 1 1 70 -29 152 -67 83 -38 184 -84 225 -102 41 -19 187 -85 323 -147 136 -62 249 -111 251 -109 1 2 28 72 58 154 31 83 74 198 96 257 l40 107 -25 78 c-14 43 -47 149 -74 236 -27 86 -71 229 -99 317 -27 88 -73 233 -101 323 -28 89 -63 203 -79 252 -28 90 -86 275 -179 573 -27 86 -86 274 -131 417 -45 143 -100 320 -123 393 l-40 132 -229 0 c-179 0 -228 -3 -228 -13z"/>
 <path d="M8010 7334 c0 -9 13 -91 30 -183 41 -227 129 -719 135 -758 6 -32 7 -32 48 -28 23 2 101 9 172 15 72 6 182 15 245 20 63 5 174 14 245 20 381 31 333 21 645 140 76 30 506 192 683 258 l97 36 0 157 0 157 -52 6 c-29 3 -109 11 -178 16 -69 6 -179 15 -245 20 -267 23 -366 31 -485 41 -69 6 -166 14 -217 17 l-92 7 -173 -113 -173 -113 -3 151 -3 150 -339 0 c-306 0 -340 -2 -340 -16z"/>
 <path d="M8413 6108 c6 -24 48 -260 117 -648 60 -344 46 -305 110 -304 30 0 118 6 195 12 77 7 194 17 260 22 66 6 172 15 235 20 63 6 156 13 205 16 99 6 72 -3 815 277 l355 134 3 161 c2 149 1 162 -15 162 -18 0 -68 4 -429 34 -98 9 -237 20 -309 26 -71 6 -175 15 -230 20 -55 5 -140 12 -190 15 l-90 6 -170 -110 -170 -110 -3 145 -3 144 -345 0 -346 0 5 -22z"/>
 </g>
<g id="layer103" fill="#6590fe" stroke="none">
 <path d="M3379 7595 l-444 -355 1 -43 c1 -23 11 -103 22 -177 12 -74 35 -225 51 -335 17 -110 46 -306 66 -435 19 -129 35 -253 35 -276 0 -24 -13 -127 -29 -231 -16 -103 -48 -316 -72 -473 -23 -157 -43 -286 -43 -287 -1 -1 -63 -18 -331 -88 -49 -13 -171 -45 -270 -71 -99 -26 -193 -50 -210 -54 -34 -8 -40 -2 -242 192 -62 59 -118 108 -124 108 -11 0 -435 -305 -471 -339 -17 -15 -8 -27 140 -191 96 -107 240 -250 370 -367 l212 -191 837 280 c461 155 839 282 840 282 2 1 6 56 33 421 5 72 14 191 20 265 10 144 46 629 56 770 6 85 6 86 -111 525 -65 242 -119 445 -121 450 -2 6 133 167 301 358 168 192 305 352 305 355 0 4 -85 64 -189 134 l-189 128 -443 -355z"/>
 <path d="M3484 3968 c-98 -106 -181 -195 -184 -198 -3 -3 -122 -131 -265 -284 l-260 -279 -22 74 c-12 41 -40 139 -64 219 -23 80 -45 148 -48 152 -11 12 -686 -217 -689 -233 -1 -9 32 -161 74 -340 42 -178 85 -360 95 -404 11 -44 28 -118 39 -165 11 -47 29 -123 40 -170 44 -191 16 -154 289 -378 l244 -201 94 -163 c52 -90 99 -168 104 -174 5 -7 87 -13 216 -17 115 -4 318 -12 453 -17 495 -20 732 -30 1020 -40 162 -5 314 -12 338 -15 l42 -5 0 53 c0 28 -5 140 -11 247 -5 107 -14 261 -18 343 -4 81 -10 149 -12 151 -2 3 -72 -2 -154 -10 -464 -44 -543 -50 -530 -36 6 6 249 198 540 426 292 229 530 421 530 428 0 6 -75 66 -166 132 -91 67 -349 256 -575 421 -802 587 -924 675 -932 675 -5 0 -89 -87 -188 -192z"/>
 <path d="M6208 3457 c-81 -23 -152 -46 -157 -52 -5 -5 -41 -89 -81 -185 -39 -96 -99 -239 -131 -317 -32 -79 -86 -208 -119 -288 -33 -80 -87 -210 -120 -289 l-60 -144 29 -139 c17 -76 50 -230 75 -343 25 -113 50 -233 57 -267 l13 -61 75 -21 c42 -12 116 -32 164 -44 48 -13 88 -26 88 -31 1 -4 -37 -62 -83 -129 -110 -159 -104 -148 -71 -142 15 3 105 19 198 35 278 49 388 68 433 75 l42 7 0 820 0 819 -35 132 c-19 73 -50 193 -70 267 -19 74 -47 181 -61 238 -15 56 -29 102 -33 101 -3 0 -72 -20 -153 -42z"/>
 <path d="M7448 3457 c-81 -23 -152 -46 -157 -52 -5 -5 -41 -89 -81 -185 -39 -96 -99 -239 -131 -317 -32 -79 -86 -208 -119 -288 -33 -80 -87 -210 -120 -289 l-60 -144 29 -139 c16 -76 48 -219 69 -318 22 -99 48 -218 58 -265 9 -47 18 -86 19 -87 0 -1 70 -21 155 -43 85 -23 161 -43 167 -45 8 -3 -21 -53 -75 -132 -114 -166 -108 -154 -75 -148 15 3 105 19 198 35 278 49 388 68 433 75 l42 7 0 820 0 820 -30 114 c-16 63 -43 165 -59 227 -17 61 -46 173 -65 248 -20 75 -36 139 -36 143 0 8 2 9 -162 -37z"/>
 </g>

</svg>